<?xml version="1.0" encoding="UTF-8" standalone="no"?>
<!-- Created with Inkscape (http://www.inkscape.org/) -->

<svg
   version="1.1"
   id="svg2"
   width="1160"
   height="778.66669"
   viewBox="0 0 1160 778.66669"
   sodipodi:docname="cloud-akatsuki-seeklogo.com.eps"
   xmlns:inkscape="http://www.inkscape.org/namespaces/inkscape"
   xmlns:sodipodi="http://sodipodi.sourceforge.net/DTD/sodipodi-0.dtd"
   xmlns="http://www.w3.org/2000/svg"
   xmlns:svg="http://www.w3.org/2000/svg">
  <defs
     id="defs6" />
  <sodipodi:namedview
     id="namedview4"
     pagecolor="#ffffff"
     bordercolor="#000000"
     borderopacity="0.25"
     inkscape:showpageshadow="2"
     inkscape:pageopacity="0.0"
     inkscape:pagecheckerboard="0"
     inkscape:deskcolor="#d1d1d1" />
  <g
     id="g8"
     inkscape:groupmode="layer"
     inkscape:label="ink_ext_XXXXXX"
     transform="matrix(1.3333333,0,0,-1.3333333,0,778.66667)">
    <g
       id="g10"
       transform="scale(0.1)">
      <path
         d="m 2383.25,3930.07 c 18.61,240.66 89.17,470.53 222.78,675.78 121.42,186.51 286.2,337.92 478.38,449.42 173.72,100.79 367.77,168.09 566.07,199.3 172.6,27.17 353.82,28.13 525.25,-7.49 4.38,-0.91 8.75,-1.82 13.13,-2.73 164.78,217.91 389.44,377.37 645.79,475.11 300.37,114.52 633.37,141.09 950.24,92.95 323.72,-49.19 637.65,-177.31 895.45,-380.52 265.71,-209.43 455.61,-485.91 549.64,-808.32 665.82,-117.5 1154.2,-572.94 1359.72,-1220.79 106.52,-335.78 129.62,-700.91 73.66,-1048.34 -55.66,-345.54 -191.32,-682.8 -413.52,-955.28 -199.43,-244.57 -458.18,-423.926 -761.69,-513.41 -82.35,-24.277 -166.65,-41.828 -251.74,-53.086 -125.56,-16.605 -252.88,-17.777 -379,-7.086 -1.25,0.106 -2.5,0.207 -3.75,0.317 l -1.62,0.132 -1.61,0.188 c -1.25,0.144 -2.5,0.285 -3.75,0.43 -49.39,5.652 -98.45,13.925 -146.91,24.886 C 6618.69,659.457 6488.74,493.902 6325.7,361.871 6109.76,187.008 5843.55,76.3203 5570.37,30.6445 5290.7,-16.1133 4998.14,4.24219 4730.34,99.1328 4506.6,178.414 4308.24,306.902 4149.13,480.16 3938.38,333.273 3684.84,241.539 3432.44,206.711 c -184.49,-25.465 -373.65,-21.695 -556.46,14.5 -191.21,37.855 -373.89,111 -535.15,220.965 -255.58,174.273 -438.94,427.679 -518.42,723.774 -492.52,-32.65 -917.097,157.35 -1235.082,537.75 -146.281,174.99 -260.031,377.01 -348.336,586.76 -29.476,70.01 -54.07,145.98 -76.797,218.45 -33.148,105.7 -62.9059,212.99 -88.1325,320.86 -39.2578,167.96 -122.3438,537.16 10.3125,677.75 7.9844,8.47 16.75,16.19 26.172,23.03 83.859,60.91 194.734,37.23 286.187,9.86 130.219,-38.97 262.579,-95.24 389.813,-144.03 140.672,-53.96 347.473,-94.5 491.693,-35.86 63.47,42.97 121.14,100.89 175.89,153.87 152.21,147.34 292.28,269.86 493.85,346.38 140.8,53.44 287.15,73.68 435.27,69.3"
         style="fill:#451316;fill-opacity:1;fill-rule:evenodd;stroke:none"
         id="path12" />
      <path
         d="m 2383.25,3930.07 c 18.61,240.66 89.17,470.53 222.78,675.78 121.42,186.51 286.2,337.92 478.38,449.42 173.72,100.79 367.77,168.09 566.07,199.3 172.6,27.17 353.82,28.13 525.25,-7.49 4.38,-0.91 8.75,-1.82 13.13,-2.73 164.78,217.91 389.44,377.37 645.79,475.11 300.37,114.52 633.37,141.09 950.24,92.95 323.72,-49.19 637.65,-177.31 895.45,-380.52 265.71,-209.43 455.61,-485.91 549.64,-808.32 665.82,-117.5 1154.2,-572.94 1359.72,-1220.79 106.52,-335.78 129.62,-700.91 73.66,-1048.34 -55.66,-345.54 -191.32,-682.8 -413.52,-955.28 -199.43,-244.57 -458.18,-423.926 -761.69,-513.41 -82.35,-24.277 -166.65,-41.828 -251.74,-53.086 -125.56,-16.605 -252.88,-17.777 -379,-7.086 -1.25,0.106 -2.5,0.207 -3.75,0.317 l -1.62,0.132 -1.61,0.188 c -1.25,0.144 -2.5,0.285 -3.75,0.43 -49.39,5.652 -98.45,13.925 -146.91,24.886 C 6618.69,659.457 6488.74,493.902 6325.7,361.871 6109.76,187.008 5843.55,76.3203 5570.37,30.6445 5290.7,-16.1133 4998.14,4.24219 4730.34,99.1328 4506.6,178.414 4308.24,306.902 4149.13,480.16 3938.38,333.273 3684.84,241.539 3432.44,206.711 c -184.49,-25.465 -373.65,-21.695 -556.46,14.5 -191.21,37.855 -373.89,111 -535.15,220.965 -255.58,174.273 -438.94,427.679 -518.42,723.774 -492.52,-32.65 -917.097,157.35 -1235.082,537.75 -146.281,174.99 -260.031,377.01 -348.336,586.76 -29.476,70.01 -54.07,145.98 -76.797,218.45 -33.148,105.7 -62.9059,212.99 -88.1325,320.86 -39.2578,167.96 -122.3438,537.16 10.3125,677.75 7.9844,8.47 16.75,16.19 26.172,23.03 83.859,60.91 194.734,37.23 286.187,9.86 130.219,-38.97 262.579,-95.24 389.813,-144.03 140.672,-53.96 347.473,-94.5 491.693,-35.86 63.47,42.97 121.14,100.89 175.89,153.87 152.21,147.34 292.28,269.86 493.85,346.38 140.8,53.44 287.15,73.68 435.27,69.3 z"
         style="fill:none;stroke:#231f20;stroke-width:5.6693;stroke-linecap:butt;stroke-linejoin:miter;stroke-miterlimit:22.9256;stroke-dasharray:none;stroke-opacity:1"
         id="path14" />
      <path
         d="m 7146.99,4531.29 c 652.28,-90.77 1140.26,-519.4 1343.47,-1159.99 101.57,-320.14 123.49,-668.98 70.12,-1000.31 -52.73,-327.33 -180.86,-647.83 -391.42,-906.04 -186.02,-228.11 -426.77,-395.7 -710.45,-479.345 -77.17,-22.75 -156.2,-39.183 -235.96,-49.734 -118.15,-15.629 -237.87,-16.621 -356.54,-6.562 -1.28,0.109 -2.57,0.218 -3.85,0.324 -1.28,0.148 -2.56,0.293 -3.84,0.441 -76.15,8.715 -150.79,24.059 -223.19,46.192 -0.35,-1.051 -0.69,-2.102 -1.04,-3.153 C 6564.63,761.918 6432.4,582.227 6260.19,442.777 6058.27,279.273 5808.55,176.02 5553.2,133.324 5290.98,89.4883 5016.23,108.277 4765.12,197.262 4523.13,283.008 4318.56,428.219 4164.73,622.113 3953.51,450.461 3683.19,346.398 3418.21,309.836 c -172.99,-23.875 -350.58,-20.445 -522.01,13.5 -177.46,35.133 -346.98,102.746 -496.72,204.852 -262.91,179.277 -438.76,445.945 -496.29,751.452 -0.96,-0.14 -1.91,-0.29 -2.87,-0.44 -7.34,-1.11 -14.69,-2.16 -22.05,-3.18 -6.47,-0.9 -12.95,-1.75 -19.43,-2.57 -1.65,-0.2 -3.3,-0.41 -4.95,-0.62 -1.66,-0.14 -3.31,-0.29 -4.98,-0.44 -475.62,-41.59 -879.152,136.14 -1181.715,498.08 -137.789,164.83 -246.882,357.61 -332.257,560.38 -74.204,176.26 -316.9067,954.65 -174.852,1105.22 70.219,74.41 244.953,-4.87 589.172,-136.89 192.57,-73.86 419.192,-100.62 578.542,-30.73 72.15,47.17 137.18,111.58 198.72,171.14 141.26,136.73 270.51,252.52 458.42,323.85 162.11,61.54 330.36,73.51 497.5,55.47 3.31,256.86 65.9,507.5 210.84,730.15 112.56,172.9 265.27,312.84 443.36,416.16 162.55,94.31 344.5,157.31 530.02,186.51 159.89,25.17 329.04,26.43 487.89,-6.58 26.48,-5.51 52.97,-11.01 79.46,-16.51 153.58,226.84 375.71,393.64 637.72,493.55 283.52,108.09 598.52,132.72 897.52,87.29 305.88,-46.47 603.05,-167.34 846.64,-359.34 268.89,-211.94 451.24,-493.6 531.1,-818.85"
         style="fill:#ffffff;fill-opacity:1;fill-rule:evenodd;stroke:none"
         id="path16" />
      <path
         d="m 7146.99,4531.29 c 652.28,-90.77 1140.26,-519.4 1343.47,-1159.99 101.57,-320.14 123.49,-668.98 70.12,-1000.31 -52.73,-327.33 -180.86,-647.83 -391.42,-906.04 -186.02,-228.11 -426.77,-395.7 -710.45,-479.345 -77.17,-22.75 -156.2,-39.183 -235.96,-49.734 -118.15,-15.629 -237.87,-16.621 -356.54,-6.562 -1.28,0.109 -2.57,0.218 -3.85,0.324 -1.28,0.148 -2.56,0.293 -3.84,0.441 -76.15,8.715 -150.79,24.059 -223.19,46.192 -0.35,-1.051 -0.69,-2.102 -1.04,-3.153 C 6564.63,761.918 6432.4,582.227 6260.19,442.777 6058.27,279.273 5808.55,176.02 5553.2,133.324 5290.98,89.4883 5016.23,108.277 4765.12,197.262 4523.13,283.008 4318.56,428.219 4164.73,622.113 3953.51,450.461 3683.19,346.398 3418.21,309.836 c -172.99,-23.875 -350.58,-20.445 -522.01,13.5 -177.46,35.133 -346.98,102.746 -496.72,204.852 -262.91,179.277 -438.76,445.945 -496.29,751.452 -0.96,-0.14 -1.91,-0.29 -2.87,-0.44 -7.34,-1.11 -14.69,-2.16 -22.05,-3.18 -6.47,-0.9 -12.95,-1.75 -19.43,-2.57 -1.65,-0.2 -3.3,-0.41 -4.95,-0.62 -1.66,-0.14 -3.31,-0.29 -4.98,-0.44 -475.62,-41.59 -879.152,136.14 -1181.715,498.08 -137.789,164.83 -246.882,357.61 -332.257,560.38 -74.204,176.26 -316.9067,954.65 -174.852,1105.22 70.219,74.41 244.953,-4.87 589.172,-136.89 192.57,-73.86 419.192,-100.62 578.542,-30.73 72.15,47.17 137.18,111.58 198.72,171.14 141.26,136.73 270.51,252.52 458.42,323.85 162.11,61.54 330.36,73.51 497.5,55.47 3.31,256.86 65.9,507.5 210.84,730.15 112.56,172.9 265.27,312.84 443.36,416.16 162.55,94.31 344.5,157.31 530.02,186.51 159.89,25.17 329.04,26.43 487.89,-6.58 26.48,-5.51 52.97,-11.01 79.46,-16.51 153.58,226.84 375.71,393.64 637.72,493.55 283.52,108.09 598.52,132.72 897.52,87.29 305.88,-46.47 603.05,-167.34 846.64,-359.34 268.89,-211.94 451.24,-493.6 531.1,-818.85 z"
         style="fill:none;stroke:#ffffff;stroke-width:5.6693;stroke-linecap:butt;stroke-linejoin:miter;stroke-miterlimit:22.9256;stroke-dasharray:none;stroke-opacity:1"
         id="path18" />
      <path
         d="m 8239.89,3291.81 c -168.66,531.65 -589.38,963.1 -1282.97,992.98 l -33.61,1.44 -4.2,33.53 c -44.57,355.61 -222.21,631.79 -465.95,823.91 -207.12,163.25 -461.8,266.17 -723.39,305.91 -261.62,39.75 -529.97,16.34 -764.38,-73.03 -261.81,-99.83 -481,-282.28 -599.93,-551.25 -49.94,-137.28 -71.27,-285.07 -57.54,-430.73 14.35,-152 66.21,-295.68 154.03,-420.7 44.45,-56.69 97.51,-106.69 155.69,-149.07 99.55,-72.51 217.87,-125.38 339.3,-147.09 105.34,-18.83 218.76,-14.82 317.54,29.42 33.12,14.83 64.77,32.91 94.56,53.61 197.37,137.22 339.51,418.47 177.41,635.99 -44.49,59.72 -32.1,144.59 27.6,189.09 59.71,44.49 144.59,32.1 189.09,-27.61 79.98,-107.33 122.99,-232.75 123.99,-366.72 2.34,-313.76 -222.43,-605.7 -502.19,-730.99 -149.03,-66.74 -316.08,-77.32 -475.56,-48.81 -161.75,28.92 -318.19,98.05 -450.85,194.68 -79.45,57.88 -151.44,126.38 -211.8,204.04 -1.23,1.59 -2.44,3.21 -3.6,4.86 -117.69,166.29 -187.05,358.49 -204.89,561.29 -15.17,172.46 7.66,347.3 62.82,511.21 -116.36,24.17 -252.73,26.43 -393.52,4.27 -147.92,-23.28 -300.23,-73.71 -438.96,-154.2 -138.02,-80.08 -262.33,-189.87 -354.98,-332.21 -137.04,-210.5 -205.54,-493.16 -148.15,-857.7 l 9.75,-61.97 -60.2,17.58 c -571.86,167.01 -790.98,-45.07 -1005.63,-252.84 -79.1,-76.55 -157.61,-152.55 -253.04,-212.07 l -2.23,-1.39 -1.66,-0.79 c -359.28,-172.24 -855.26,28.36 -1078.385,122.35 12.195,-75.92 28.562,-160.88 50.008,-250.81 74.328,-311.69 209.929,-687.91 444.828,-968.91 219.739,-262.87 528.019,-442.33 957.119,-404.79 5.43,0.68 10.86,1.39 16.3,2.15 6.24,0.86 12.47,1.76 18.71,2.7 3.99,68.09 13.68,135.74 29.46,202.15 70.58,296.97 263.93,550.64 550.69,666.01 116.17,46.75 240.74,67.25 365.77,60.89 3.58,-0.18 7.11,-0.49 10.67,-0.94 64.51,-8.09 127.98,-20.84 189.07,-38.25 187.8,-49.83 354.09,-145.41 453.59,-289.88 90.14,-121.85 135.59,-277.08 111.85,-466.55 -9.96,-79.43 -82.76,-136.01 -162.19,-126.06 -79.43,9.95 -136.02,82.76 -126.06,162.19 38.66,308.52 -236.49,435.68 -496.93,469.6 -81.21,3.41 -161.89,-10.14 -237.34,-40.5 -198.78,-79.99 -327.82,-258.93 -376.48,-463.67 -17.4,-73.21 -26.13,-146.26 -26.54,-218.02 13.45,-282.61 153.23,-541.77 401.01,-710.723 120.78,-82.36 257.38,-135.996 399.67,-164.172 142.77,-28.266 291.15,-30.813 435.01,-10.961 325.21,44.879 626.14,203.594 785.71,437.626 l 39.43,57.82 29.64,-63.33 c 133.61,-285.569 359.15,-466.35 615.87,-557.315 209.07,-74.086 438.87,-88.899 656.93,-52.442 217.91,36.438 423.68,123.926 584.9,254.469 133.38,108.012 236.23,245.688 289.88,408.368 -72.9,42.48 -142.08,94.38 -197.88,147.24 -131.58,124.66 -233.36,283.09 -282.98,458.01 -33.86,119.37 -42.47,243.73 -22.68,366.36 10.99,68.02 28.25,135.06 51.29,199.99 79.23,223.24 232.64,434.65 451.95,536.22 193.63,89.69 399.89,75.95 591.52,-11.43 72.66,-33.13 104.88,-119.38 71.75,-192.04 -33.13,-72.65 -119.37,-104.87 -192.03,-71.75 -113.77,51.89 -233.47,65.86 -349.41,12.17 -190.14,-88.07 -306.83,-320.91 -338.87,-519.36 -41.84,-259.2 114.91,-512.27 325.04,-652.5 l 0.04,-0.02 0.05,-0.04 c 123.39,-78.13 257.85,-121.23 395.99,-137.04 105.57,-8.95 205.56,-6.81 299.87,5.23 65.96,9.15 131.58,23.19 196.09,41.27 238.15,71.15 432.42,211.06 581.06,393.33 175.85,215.65 288.73,490.64 335.61,781.71 46.99,291.75 27.61,599.22 -61.15,879.01"
         style="fill:#ed1c24;fill-opacity:1;fill-rule:nonzero;stroke:none"
         id="path20" />
      <path
         d="m 8239.89,3291.81 c -168.66,531.65 -589.38,963.1 -1282.97,992.98 l -33.61,1.44 -4.2,33.53 c -44.57,355.61 -222.21,631.79 -465.95,823.91 -207.12,163.25 -461.8,266.17 -723.39,305.91 -261.62,39.75 -529.97,16.34 -764.38,-73.03 -261.81,-99.83 -481,-282.28 -599.93,-551.25 -49.94,-137.28 -71.27,-285.07 -57.54,-430.73 14.35,-152 66.21,-295.68 154.03,-420.7 44.45,-56.69 97.51,-106.69 155.69,-149.07 99.55,-72.51 217.87,-125.38 339.3,-147.09 105.34,-18.83 218.76,-14.82 317.54,29.42 33.12,14.83 64.77,32.91 94.56,53.61 197.37,137.22 339.51,418.47 177.41,635.99 -44.49,59.72 -32.1,144.59 27.6,189.09 59.71,44.49 144.59,32.1 189.09,-27.61 79.98,-107.33 122.99,-232.75 123.99,-366.72 2.34,-313.76 -222.43,-605.7 -502.19,-730.99 -149.03,-66.74 -316.08,-77.32 -475.56,-48.81 -161.75,28.92 -318.19,98.05 -450.85,194.68 -79.45,57.88 -151.44,126.38 -211.8,204.04 -1.23,1.59 -2.44,3.21 -3.6,4.86 -117.69,166.29 -187.05,358.49 -204.89,561.29 -15.17,172.46 7.66,347.3 62.82,511.21 -116.36,24.17 -252.73,26.43 -393.52,4.27 -147.92,-23.28 -300.23,-73.71 -438.96,-154.2 -138.02,-80.08 -262.33,-189.87 -354.98,-332.21 -137.04,-210.5 -205.54,-493.16 -148.15,-857.7 l 9.75,-61.97 -60.2,17.58 c -571.86,167.01 -790.98,-45.07 -1005.63,-252.84 -79.1,-76.55 -157.61,-152.55 -253.04,-212.07 l -2.23,-1.39 -1.66,-0.79 c -359.28,-172.24 -855.26,28.36 -1078.385,122.35 12.195,-75.92 28.562,-160.88 50.008,-250.81 74.328,-311.69 209.929,-687.91 444.828,-968.91 219.739,-262.87 528.019,-442.33 957.119,-404.79 5.43,0.68 10.86,1.39 16.3,2.15 6.24,0.86 12.47,1.76 18.71,2.7 3.99,68.09 13.68,135.74 29.46,202.15 70.58,296.97 263.93,550.64 550.69,666.01 116.17,46.75 240.74,67.25 365.77,60.89 3.58,-0.18 7.11,-0.49 10.67,-0.94 64.51,-8.09 127.98,-20.84 189.07,-38.25 187.8,-49.83 354.09,-145.41 453.59,-289.88 90.14,-121.85 135.59,-277.08 111.85,-466.55 -9.96,-79.43 -82.76,-136.01 -162.19,-126.06 -79.43,9.95 -136.02,82.76 -126.06,162.19 38.66,308.52 -236.49,435.68 -496.93,469.6 -81.21,3.41 -161.89,-10.14 -237.34,-40.5 -198.78,-79.99 -327.82,-258.93 -376.48,-463.67 -17.4,-73.21 -26.13,-146.26 -26.54,-218.02 13.45,-282.61 153.23,-541.77 401.01,-710.723 120.78,-82.36 257.38,-135.996 399.67,-164.172 142.77,-28.266 291.15,-30.813 435.01,-10.961 325.21,44.879 626.14,203.594 785.71,437.626 l 39.43,57.82 29.64,-63.33 c 133.61,-285.569 359.15,-466.35 615.87,-557.315 209.07,-74.086 438.87,-88.899 656.93,-52.442 217.91,36.438 423.68,123.926 584.9,254.469 133.38,108.012 236.23,245.688 289.88,408.368 -72.9,42.48 -142.08,94.38 -197.88,147.24 -131.58,124.66 -233.36,283.09 -282.98,458.01 -33.86,119.37 -42.47,243.73 -22.68,366.36 10.99,68.02 28.25,135.06 51.29,199.99 79.23,223.24 232.64,434.65 451.95,536.22 193.63,89.69 399.89,75.95 591.52,-11.43 72.66,-33.13 104.88,-119.38 71.75,-192.04 -33.13,-72.65 -119.37,-104.87 -192.03,-71.75 -113.77,51.89 -233.47,65.86 -349.41,12.17 -190.14,-88.07 -306.83,-320.91 -338.87,-519.36 -41.84,-259.2 114.91,-512.27 325.04,-652.5 l 0.04,-0.02 0.05,-0.04 c 123.39,-78.13 257.85,-121.23 395.99,-137.04 105.57,-8.95 205.56,-6.81 299.87,5.23 65.96,9.15 131.58,23.19 196.09,41.27 238.15,71.15 432.42,211.06 581.06,393.33 175.85,215.65 288.73,490.64 335.61,781.71 46.99,291.75 27.61,599.22 -61.15,879.01 z"
         style="fill:none;stroke:#ffffff;stroke-width:5.6693;stroke-linecap:butt;stroke-linejoin:miter;stroke-miterlimit:22.9256;stroke-dasharray:none;stroke-opacity:1"
         id="path22" />
    </g>
  </g>
</svg>
